<mxfile host="app.diagrams.net" agent="Mozilla/5.0 (Windows NT 10.0; Win64; x64) AppleWebKit/537.36 (KHTML, like Gecko) Chrome/137.0.0.0 Safari/537.36" version="27.1.6">
  <diagram id="R2lEEEUBdFMjLlhIrx00" name="Page-1">
    <mxGraphModel dx="2573" dy="811" grid="0" gridSize="45" guides="1" tooltips="1" connect="1" arrows="1" fold="1" page="1" pageScale="1" pageWidth="1080" pageHeight="720" background="#2E2B55" math="0" shadow="0" extFonts="Permanent Marker^https://fonts.googleapis.com/css?family=Permanent+Marker">
      <root>
        <mxCell id="0" />
        <mxCell id="1" parent="0" />
        <mxCell id="rvtcHREpMxHjGHmo84dP-1" value="&lt;font style=&quot;color: light-dark(rgb(218, 220, 229), rgb(237, 237, 237)); font-size: 14px;&quot;&gt;EcommerceDB by &lt;/font&gt;&lt;font style=&quot;font-size: 14px; color: light-dark(rgb(218, 220, 229), rgb(255, 181, 112));&quot;&gt;ANSHP&lt;/font&gt;&lt;font style=&quot;color: light-dark(rgb(218, 220, 229), rgb(237, 237, 237)); font-size: 14px;&quot;&gt;&amp;nbsp; &amp;nbsp; &amp;nbsp; &amp;nbsp; &amp;nbsp; &amp;nbsp; &amp;nbsp; &amp;nbsp; &amp;nbsp; &amp;nbsp; &amp;nbsp; &amp;nbsp; &amp;nbsp; &amp;nbsp; &amp;nbsp; &amp;nbsp; &amp;nbsp; &amp;nbsp; &amp;nbsp; &amp;nbsp; &amp;nbsp; &amp;nbsp; &amp;nbsp; &amp;nbsp; &amp;nbsp; &amp;nbsp; &amp;nbsp; &amp;nbsp; &amp;nbsp; &amp;nbsp; &amp;nbsp; &amp;nbsp; &amp;nbsp; &amp;nbsp; &amp;nbsp; &amp;nbsp; &amp;nbsp; &amp;nbsp; &amp;nbsp; &amp;nbsp; &amp;nbsp; &amp;nbsp; &amp;nbsp; &amp;nbsp; &amp;nbsp; &amp;nbsp; &amp;nbsp; &amp;nbsp; &amp;nbsp; &amp;nbsp; &amp;nbsp; &amp;nbsp; &amp;nbsp; &amp;nbsp; &amp;nbsp; &amp;nbsp; &amp;nbsp; &amp;nbsp; &amp;nbsp; &amp;nbsp; &amp;nbsp; &amp;nbsp; &amp;nbsp; &amp;nbsp; &amp;nbsp; &amp;nbsp; &amp;nbsp; &amp;nbsp; &amp;nbsp; &amp;nbsp; &amp;nbsp; &amp;nbsp; &amp;nbsp; &amp;nbsp; &amp;nbsp; &amp;nbsp; &amp;nbsp; powered by postgresSql&amp;nbsp;&lt;/font&gt;" style="rounded=1;whiteSpace=wrap;html=1;fillColor=#1F1E40;strokeColor=none;align=center;opacity=80;" vertex="1" parent="1">
          <mxGeometry x="-40" y="21" width="1188" height="51" as="geometry" />
        </mxCell>
        <mxCell id="rvtcHREpMxHjGHmo84dP-2" value="&lt;font face=&quot;Helvetica&quot; style=&quot;color: rgb(188, 120, 209); font-size: 21px;&quot;&gt;&lt;b style=&quot;&quot;&gt;Customer&lt;/b&gt;&lt;/font&gt;" style="swimlane;fontStyle=0;childLayout=stackLayout;horizontal=1;startSize=30;horizontalStack=0;resizeParent=1;resizeParentMax=0;resizeLast=0;collapsible=1;marginBottom=0;whiteSpace=wrap;html=1;strokeColor=#9CDEED;fillColor=#232245;strokeWidth=2;perimeterSpacing=1;rounded=1;opacity=30;spacingTop=0;spacing=5;spacingBottom=0;" vertex="1" parent="1">
          <mxGeometry x="138" y="177" width="225" height="102" as="geometry">
            <mxRectangle x="772" y="248" width="54" height="30" as="alternateBounds" />
          </mxGeometry>
        </mxCell>
        <mxCell id="rvtcHREpMxHjGHmo84dP-3" value="&lt;font face=&quot;Comic Sans MS&quot; style=&quot;font-size: 19px; color: rgb(221, 104, 149);&quot;&gt;c_id&lt;/font&gt;" style="text;strokeColor=none;fillColor=none;align=center;verticalAlign=middle;spacingLeft=4;spacingRight=4;overflow=hidden;points=[[0,0.5],[1,0.5]];portConstraint=eastwest;rotatable=0;whiteSpace=wrap;html=1;rounded=1;" vertex="1" parent="rvtcHREpMxHjGHmo84dP-2">
          <mxGeometry y="30" width="225" height="30" as="geometry" />
        </mxCell>
        <mxCell id="rvtcHREpMxHjGHmo84dP-4" value="&lt;font face=&quot;Comic Sans MS&quot; style=&quot;color: rgb(218, 180, 32); font-size: 19px;&quot;&gt;c_name&lt;/font&gt;" style="text;strokeColor=none;fillColor=none;align=center;verticalAlign=middle;spacingLeft=4;spacingRight=4;overflow=hidden;points=[[0,0.5],[1,0.5]];portConstraint=eastwest;rotatable=0;whiteSpace=wrap;html=1;rounded=1;fontFamily=Helvetica;fontSize=12;fontColor=default;spacing=2;" vertex="1" parent="rvtcHREpMxHjGHmo84dP-2">
          <mxGeometry y="60" width="225" height="42" as="geometry" />
        </mxCell>
        <mxCell id="rvtcHREpMxHjGHmo84dP-6" value="&lt;font color=&quot;#bc78d1&quot;&gt;&lt;span style=&quot;font-size: 21px;&quot;&gt;&lt;b&gt;Bill&lt;/b&gt;&lt;/span&gt;&lt;/font&gt;" style="swimlane;fontStyle=0;childLayout=stackLayout;horizontal=1;startSize=30;horizontalStack=0;resizeParent=1;resizeParentMax=0;resizeLast=0;collapsible=1;marginBottom=0;whiteSpace=wrap;html=1;strokeColor=#9CDEED;fillColor=#232245;strokeWidth=2;perimeterSpacing=1;rounded=1;opacity=30;spacingTop=0;spacing=5;spacingBottom=0;" vertex="1" parent="1">
          <mxGeometry x="454" y="177" width="207" height="144" as="geometry">
            <mxRectangle x="772" y="248" width="54" height="30" as="alternateBounds" />
          </mxGeometry>
        </mxCell>
        <mxCell id="rvtcHREpMxHjGHmo84dP-7" value="&lt;font face=&quot;Comic Sans MS&quot; style=&quot;font-size: 19px; color: rgb(221, 104, 149);&quot;&gt;b_id&lt;/font&gt;" style="text;strokeColor=none;fillColor=none;align=center;verticalAlign=middle;spacingLeft=4;spacingRight=4;overflow=hidden;points=[[0,0.5],[1,0.5]];portConstraint=eastwest;rotatable=0;whiteSpace=wrap;html=1;rounded=1;" vertex="1" parent="rvtcHREpMxHjGHmo84dP-6">
          <mxGeometry y="30" width="207" height="30" as="geometry" />
        </mxCell>
        <mxCell id="rvtcHREpMxHjGHmo84dP-9" value="&lt;font face=&quot;Comic Sans MS&quot; style=&quot;color: rgb(218, 180, 32); font-size: 19px;&quot;&gt;b_date&lt;/font&gt;" style="text;strokeColor=none;fillColor=none;align=center;verticalAlign=middle;spacingLeft=4;spacingRight=4;overflow=hidden;points=[[0,0.5],[1,0.5]];portConstraint=eastwest;rotatable=0;whiteSpace=wrap;html=1;rounded=1;fontFamily=Helvetica;fontSize=12;fontColor=default;spacing=2;" vertex="1" parent="rvtcHREpMxHjGHmo84dP-6">
          <mxGeometry y="60" width="207" height="42" as="geometry" />
        </mxCell>
        <mxCell id="rvtcHREpMxHjGHmo84dP-8" value="&lt;font style=&quot;color: rgb(221, 104, 149);&quot; face=&quot;Comic Sans MS&quot;&gt;&lt;span style=&quot;font-size: 19px;&quot;&gt;c_id&lt;/span&gt;&lt;/font&gt;" style="text;strokeColor=none;fillColor=none;align=center;verticalAlign=middle;spacingLeft=4;spacingRight=4;overflow=hidden;points=[[0,0.5],[1,0.5]];portConstraint=eastwest;rotatable=0;whiteSpace=wrap;html=1;rounded=1;fontFamily=Helvetica;fontSize=12;fontColor=default;spacing=2;" vertex="1" parent="rvtcHREpMxHjGHmo84dP-6">
          <mxGeometry y="102" width="207" height="42" as="geometry" />
        </mxCell>
        <mxCell id="rvtcHREpMxHjGHmo84dP-15" value="&lt;font color=&quot;#bc78d1&quot;&gt;&lt;span style=&quot;font-size: 21px;&quot;&gt;&lt;b&gt;Products&lt;/b&gt;&lt;/span&gt;&lt;/font&gt;" style="swimlane;fontStyle=0;childLayout=stackLayout;horizontal=1;startSize=30;horizontalStack=0;resizeParent=1;resizeParentMax=0;resizeLast=0;collapsible=1;marginBottom=0;whiteSpace=wrap;html=1;strokeColor=#9CDEED;fillColor=#232245;strokeWidth=2;perimeterSpacing=1;rounded=1;opacity=30;spacingTop=0;spacing=5;spacingBottom=0;" vertex="1" parent="1">
          <mxGeometry x="751" y="177" width="207" height="144" as="geometry">
            <mxRectangle x="772" y="248" width="54" height="30" as="alternateBounds" />
          </mxGeometry>
        </mxCell>
        <mxCell id="rvtcHREpMxHjGHmo84dP-16" value="&lt;font face=&quot;Comic Sans MS&quot; style=&quot;font-size: 19px; color: rgb(221, 104, 149);&quot;&gt;p_id&lt;/font&gt;" style="text;strokeColor=none;fillColor=none;align=center;verticalAlign=middle;spacingLeft=4;spacingRight=4;overflow=hidden;points=[[0,0.5],[1,0.5]];portConstraint=eastwest;rotatable=0;whiteSpace=wrap;html=1;rounded=1;" vertex="1" parent="rvtcHREpMxHjGHmo84dP-15">
          <mxGeometry y="30" width="207" height="30" as="geometry" />
        </mxCell>
        <mxCell id="rvtcHREpMxHjGHmo84dP-17" value="&lt;font face=&quot;Comic Sans MS&quot; color=&quot;#dab420&quot;&gt;&lt;span style=&quot;font-size: 19px;&quot;&gt;p_name&lt;/span&gt;&lt;/font&gt;" style="text;strokeColor=none;fillColor=none;align=center;verticalAlign=middle;spacingLeft=4;spacingRight=4;overflow=hidden;points=[[0,0.5],[1,0.5]];portConstraint=eastwest;rotatable=0;whiteSpace=wrap;html=1;rounded=1;fontFamily=Helvetica;fontSize=12;fontColor=default;spacing=2;" vertex="1" parent="rvtcHREpMxHjGHmo84dP-15">
          <mxGeometry y="60" width="207" height="42" as="geometry" />
        </mxCell>
        <mxCell id="rvtcHREpMxHjGHmo84dP-18" value="&lt;font face=&quot;Comic Sans MS&quot; color=&quot;#dab420&quot;&gt;&lt;span style=&quot;font-size: 19px;&quot;&gt;price&lt;/span&gt;&lt;/font&gt;" style="text;strokeColor=none;fillColor=none;align=center;verticalAlign=middle;spacingLeft=4;spacingRight=4;overflow=hidden;points=[[0,0.5],[1,0.5]];portConstraint=eastwest;rotatable=0;whiteSpace=wrap;html=1;rounded=1;fontFamily=Helvetica;fontSize=12;fontColor=default;spacing=2;" vertex="1" parent="rvtcHREpMxHjGHmo84dP-15">
          <mxGeometry y="102" width="207" height="42" as="geometry" />
        </mxCell>
        <mxCell id="rvtcHREpMxHjGHmo84dP-19" value="&lt;font color=&quot;#bc78d1&quot;&gt;&lt;span style=&quot;font-size: 21px;&quot;&gt;&lt;b&gt;Order_Items&lt;/b&gt;&lt;/span&gt;&lt;/font&gt;" style="swimlane;fontStyle=0;childLayout=stackLayout;horizontal=1;startSize=30;horizontalStack=0;resizeParent=1;resizeParentMax=0;resizeLast=0;collapsible=1;marginBottom=0;whiteSpace=wrap;html=1;strokeColor=#9CDEED;fillColor=#232245;strokeWidth=2;perimeterSpacing=1;rounded=1;opacity=30;spacingTop=0;spacing=5;spacingBottom=0;" vertex="1" parent="1">
          <mxGeometry x="454" y="396" width="207" height="186" as="geometry">
            <mxRectangle x="772" y="248" width="54" height="30" as="alternateBounds" />
          </mxGeometry>
        </mxCell>
        <mxCell id="rvtcHREpMxHjGHmo84dP-20" value="&lt;font face=&quot;Comic Sans MS&quot; style=&quot;color: rgb(218, 180, 32); font-size: 19px;&quot;&gt;item_id&lt;/font&gt;" style="text;strokeColor=none;fillColor=none;align=center;verticalAlign=middle;spacingLeft=4;spacingRight=4;overflow=hidden;points=[[0,0.5],[1,0.5]];portConstraint=eastwest;rotatable=0;whiteSpace=wrap;html=1;rounded=1;" vertex="1" parent="rvtcHREpMxHjGHmo84dP-19">
          <mxGeometry y="30" width="207" height="30" as="geometry" />
        </mxCell>
        <mxCell id="rvtcHREpMxHjGHmo84dP-21" value="&lt;font style=&quot;color: rgb(221, 104, 149);&quot; face=&quot;Comic Sans MS&quot;&gt;&lt;span style=&quot;font-size: 19px;&quot;&gt;b_id&lt;/span&gt;&lt;/font&gt;" style="text;strokeColor=none;fillColor=none;align=center;verticalAlign=middle;spacingLeft=4;spacingRight=4;overflow=hidden;points=[[0,0.5],[1,0.5]];portConstraint=eastwest;rotatable=0;whiteSpace=wrap;html=1;rounded=1;fontFamily=Helvetica;fontSize=12;fontColor=default;spacing=2;" vertex="1" parent="rvtcHREpMxHjGHmo84dP-19">
          <mxGeometry y="60" width="207" height="42" as="geometry" />
        </mxCell>
        <mxCell id="rvtcHREpMxHjGHmo84dP-22" value="&lt;font style=&quot;color: rgb(221, 104, 149);&quot; face=&quot;Comic Sans MS&quot;&gt;&lt;span style=&quot;font-size: 19px;&quot;&gt;p_id&lt;/span&gt;&lt;/font&gt;" style="text;strokeColor=none;fillColor=none;align=center;verticalAlign=middle;spacingLeft=4;spacingRight=4;overflow=hidden;points=[[0,0.5],[1,0.5]];portConstraint=eastwest;rotatable=0;whiteSpace=wrap;html=1;rounded=1;fontFamily=Helvetica;fontSize=12;fontColor=default;spacing=2;" vertex="1" parent="rvtcHREpMxHjGHmo84dP-19">
          <mxGeometry y="102" width="207" height="42" as="geometry" />
        </mxCell>
        <mxCell id="rvtcHREpMxHjGHmo84dP-23" value="&lt;font face=&quot;Comic Sans MS&quot; color=&quot;#dab420&quot;&gt;&lt;span style=&quot;font-size: 19px;&quot;&gt;quantity&lt;/span&gt;&lt;/font&gt;" style="text;strokeColor=none;fillColor=none;align=center;verticalAlign=middle;spacingLeft=4;spacingRight=4;overflow=hidden;points=[[0,0.5],[1,0.5]];portConstraint=eastwest;rotatable=0;whiteSpace=wrap;html=1;rounded=1;fontFamily=Helvetica;fontSize=12;fontColor=default;spacing=2;" vertex="1" parent="rvtcHREpMxHjGHmo84dP-19">
          <mxGeometry y="144" width="207" height="42" as="geometry" />
        </mxCell>
        <mxCell id="rvtcHREpMxHjGHmo84dP-35" value="" style="edgeStyle=orthogonalEdgeStyle;rounded=1;orthogonalLoop=1;jettySize=auto;html=1;fontFamily=Helvetica;fontSize=12;fontColor=default;entryX=1;entryY=0.5;entryDx=0;entryDy=0;strokeColor=#4BBF23;exitX=0;exitY=0.5;exitDx=0;exitDy=0;strokeWidth=2;endArrow=oval;endFill=1;curved=0;opacity=90;" edge="1" parent="1" source="rvtcHREpMxHjGHmo84dP-3" target="rvtcHREpMxHjGHmo84dP-8">
          <mxGeometry relative="1" as="geometry">
            <mxPoint x="135" y="217" as="sourcePoint" />
            <mxPoint x="673" y="237" as="targetPoint" />
            <Array as="points">
              <mxPoint x="122" y="222" />
              <mxPoint x="122" y="158" />
              <mxPoint x="692" y="158" />
              <mxPoint x="692" y="300" />
            </Array>
          </mxGeometry>
        </mxCell>
        <mxCell id="rvtcHREpMxHjGHmo84dP-37" style="edgeStyle=orthogonalEdgeStyle;rounded=1;orthogonalLoop=1;jettySize=auto;html=1;fontFamily=Helvetica;fontSize=12;fontColor=default;strokeColor=#4BBF23;strokeWidth=2;align=center;verticalAlign=middle;labelBackgroundColor=default;endArrow=oval;endFill=1;curved=0;entryX=0.019;entryY=0.762;entryDx=0;entryDy=0;entryPerimeter=0;" edge="1" parent="1" source="rvtcHREpMxHjGHmo84dP-7" target="rvtcHREpMxHjGHmo84dP-21">
          <mxGeometry relative="1" as="geometry">
            <mxPoint x="456" y="477" as="targetPoint" />
            <Array as="points">
              <mxPoint x="410" y="222" />
              <mxPoint x="410" y="488" />
              <mxPoint x="456" y="488" />
              <mxPoint x="456" y="489" />
            </Array>
          </mxGeometry>
        </mxCell>
        <mxCell id="rvtcHREpMxHjGHmo84dP-39" style="edgeStyle=orthogonalEdgeStyle;rounded=1;orthogonalLoop=1;jettySize=auto;html=1;exitX=0;exitY=0.5;exitDx=0;exitDy=0;entryX=1;entryY=0.5;entryDx=0;entryDy=0;fontFamily=Helvetica;fontSize=12;fontColor=default;opacity=90;strokeColor=#4BBF23;strokeWidth=2;align=center;verticalAlign=middle;labelBackgroundColor=default;endArrow=oval;endFill=1;curved=0;" edge="1" parent="1" source="rvtcHREpMxHjGHmo84dP-16" target="rvtcHREpMxHjGHmo84dP-22">
          <mxGeometry relative="1" as="geometry">
            <Array as="points">
              <mxPoint x="732" y="222" />
              <mxPoint x="732" y="519" />
            </Array>
          </mxGeometry>
        </mxCell>
        <mxCell id="rvtcHREpMxHjGHmo84dP-41" value="" style="shape=image;verticalLabelPosition=bottom;labelBackgroundColor=default;verticalAlign=top;aspect=fixed;imageAspect=0;editableCssRules=.*;image=data:image/svg+xml,PHN2ZyB4bWxucz0iaHR0cDovL3d3dy53My5vcmcvMjAwMC9zdmciIHZpZXdCb3g9IjAuNTMzMTI0ODA0NDk2NzY1MSAwIDMxLjA0NzQxMjg3MjMxNDQ1MyAzMS45OTgwMTQ0NTAwNzMyNDIiIGhlaWdodD0iMzEuOTk4MDE0NDUwMDczMjQyIiB3aWR0aD0iMzEuMDQ3NDEyODcyMzE0NDUzIj4mI3hhOwk8cGF0aCBkPSJNMjIuODM5IDBhMTMuNiAxMy42IDAgMCAwLTMuNjc3LjUzNmwtLjA4My4wMjdhMTUgMTUgMCAwIDAtMi4yNzYtLjIxOWMtMS41NzMtLjAyNy0yLjkyMy4zNTMtNC4wMTEuOTg5QzExLjcxOS45NjQgOS40OTUuMzE3IDcuMTUxLjQ0OGMtMS42MjkuMDg4LTMuNDExLjU4My00LjczNSAxLjk3OUMxLjEwNCAzLjgxOC40MDcgNS45NzQuNTUyIDguOTEyYy4wNDEuODA3LjI3MSAyLjEyNC42NTYgMy44MzdjLjM4IDEuNzA5LjkxNyAzLjcwOSAxLjU4OSA1LjUzN2MuNjcyIDEuODIzIDEuNDA1IDMuNDYzIDIuNTUyIDQuNTc3Yy41NzIuNTU3IDEuMzY0IDEuMDMyIDIuMjk2Ljk5MWMuNjUyLS4wMjcgMS4yNC0uMzEzIDEuNzUxLS43MzVjLjI0OS4zMjguNTE2LjQ2OC43NTUuNTk5Yy4zMDguMTY3LjU5OS4yODEuOTA3LjM1NWMuNTUyLjE0IDEuNDk1LjMyMyAyLjU5OS4xMzVhNSA1IDAgMCAwIDEuMTY3LS4zNTlsLjA0NyAxLjMwN2MuMDU3IDEuMzguMDk1IDIuNjU2LjUwNSAzLjc3NmMuMDY4LjE4My4yNTEgMS4xMi45NjkgMS45NTNjLjcyNC44MzMgMi4xMjkgMS4zNDkgMy43MzkgMS4wMDVjMS4xMzEtLjI0IDIuNTczLS42NzcgMy41MzItMi4wNDFjLjk0OC0xLjM0NCAxLjM3NS0zLjI3NiAxLjQ1OS02LjQxMmMuMDItLjE3Mi4wNDctLjMxMi4wNzItLjQ0OGwuMjI0LjAyMWguMDI3YzEuMjA4LjA1MiAyLjUyMS0uMTIgMy42Mi0uNjMxYy45NjgtLjQ0OCAxLjcwMy0uOTAxIDIuMjM5LTEuNzA4Yy4xMzEtLjE5OS4yODEtLjQ0My4zMTktLjg2Yy4wNDEtLjQxMS0uMTk5LTEuMDYzLS41OTUtMS4zNjRjLS43OTEtLjYwNC0xLjI5MS0uMzc1LTEuODI4LS4yNmE4LjcgOC43IDAgMCAxLTEuNTk5LjE5MmMxLjU0MS0yLjU5MyAyLjY0NS01LjM1MyAzLjI3Ni03Ljc5MmMuMzc1LTEuNDQzLjU4NC0yLjc3MS41OTktMy45MzJjLjAyMS0xLjE2MS0uMDc3LTIuMTg3LS43NzEtMy4wNzdDMjguNDgxLjgwMiAyNS40MjMuMDMgMjMuMDU5LjAwNWgtLjIxOXptLS4wNjMuODU1YzIuMjM1LS4wMjEgNS4wOTMuNjA0IDcuMTQ1IDMuMjI4Yy40NjQuNTg5LjYgMS40NDguNTg0IDIuNTExcy0uMjEzIDIuMzI4LS41NzMgMy43MTljLS42OTIgMi42OTktMi4wMTEgNS44MzMtMy44NTkgOC42NTJhMSAxIDAgMCAwIC4yMDguMTE1Yy4zODUuMTYxIDEuMjY1LjI5NiAzLjAyNS0uMDYzYy40NDMtLjA5NS43NjctLjE1NiAxLjEwNS4wOTlhLjY5LjY5IDAgMCAxIC4yNDQuNTY4YS45LjkgMCAwIDEtLjE3Ny40NDhjLS4zMzkuNTA5LTEuMDA5Ljk5NS0xLjg2OSAxLjM5NmMtLjc2LjM1My0xLjg1NS41MzYtMi44MTcuNTQ3Yy0uNDg5LjAwNS0uOTM3LS4wMzItMS4zMTktLjE1MmwtLjAyLS4wMDRjLS4xNDcgMS40MTEtLjQ4NCA0LjIwMy0uNzA0IDUuNDczYy0uMTc2IDEuMDI1LS40ODQgMS44NDQtMS4wNzIgMi40NTNjLS41ODkuNjE1LTEuNDE3Ljk3OS0yLjUzNyAxLjIxOWMtMS4zODUuMjk3LTIuMzkxLS4wMjEtMy4wNDEtLjU2OHMtLjk0OC0xLjI3Ni0xLjEyNS0xLjcxOWMtLjEyNC0uMzA3LS4xODctLjcwMy0uMjQ5LTEuMjM1YTI3IDI3IDAgMCAxLS4xMzYtMS45MTFxLS4wNjMtMS42NzktLjA0MS0zLjM2NWE0LjEgNC4xIDAgMCAxLTIuMDY4IDEuMDE2Yy0uOTIxLjE1Ni0xLjczOSAwLTIuMjI4LS4xMmEzIDMgMCAwIDEtLjY5My0uMjcxYy0uMjI5LS4xMi0uNDQzLS4yNTUtLjU4OC0uNTI3YS43NS43NSAwIDAgMS0uMDczLS41MDlhLjguOCAwIDAgMSAuMjg3LS40NDNjLjI2NS0uMjE1LjYxNS0uMzMzIDEuMTQtLjQ0M2MuOTU5LS4xOTkgMS4yOTctLjMzMyAxLjUtLjQ5NmMuMTcyLS4xMzUuMzcxLS40MTYuNzEzLS44MjhjMC0uMDE1IDAtLjAzNi0uMDA1LS4wNTJhMy45NiAzLjk2IDAgMCAxLTEuNzcxLS40NzljLS4xOTcuMjA4LTEuMjI0IDEuMjkyLTIuNDY4IDIuNzkyYy0uNTIxLjYyNC0xLjA5OS45ODQtMS43MTMgMS4wMTFjLS42MDkuMDI1LTEuMTYzLS4yODEtMS42MzEtLjczNWMtLjkzNy0uOTEyLTEuNjg4LTIuNDgtMi4zMzktNC4yNTFzLTEuMTc3LTMuNzQ0LTEuNTU3LTUuNDIxYy0uMzc1LTEuNjgzLS41OTktMy4wMzctLjYzMS0zLjY4OGMtLjE0LTIuNzc2LjUxMS00LjY0NSAxLjYyNS01LjgyOHMyLjY0MS0xLjYyNSA0LjEzMS0xLjcxM2MyLjY3Mi0uMTUxIDUuMjEzLjc4MSA1LjcyNC45NzljLjk4OS0uNjcyIDIuMjY1LTEuMDg4IDMuODU5LTEuMDYzYTEwIDEwIDAgMCAxIDIuMjQuMjkybC4wMjctLjAxNmE5IDkgMCAwIDEgLjk4NC0uMjhhMTMgMTMgMCAwIDEgMi43Ni0uMzM5em0uMjAzLjg5aC0uMTk3Yy0uNzYuMDA5LTEuNTI3LjA5OS0yLjI3MS4yNmMxLjY2MS43MzUgMi45MTYgMS44NjQgMy44MDEgM2MuNjE1Ljc4MSAxLjEyIDEuNjQgMS41MDUgMi41NTdxLjIyNy41MzQuMzAzLjg4Yy4wMzEuMTE1LjA0Ny4yMTMuMDU3LjMxMmMwIC4wNTIuMDA1LjEwNS0uMDIxLjE5M2MwIC4wMDUtLjAwNS4wMTYtLjAwNS4wMjFjLjA0MyAxLjE2Ny0uMjQ5IDEuOTU3LS4yODcgMy4wNzJjLS4wMjUuODA4LjE4MyAxLjc1Ni4yMzUgMi43OTJjLjA0Ny45NzMtLjA3MiAyLjA0MS0uNzAzIDMuMDkzYy4wNTIuMDYzLjA5OS4xMjUuMTUxLjE5M2MxLjY3Mi0yLjYzNiAyLjg4LTUuNTQ3IDMuNTIxLTguMDMyYy4zNDQtMS4zMzkuNTI1LTIuNTUyLjU0MS0zLjUwOWMuMDE2LS45NTktLjE2MS0xLjY1Ny0uMzkxLTEuOTQ4Yy0xLjc5Mi0yLjI4Ny00LjIxMy0yLjg3MS02LjI0LTIuODg1em0tNi4zOTEuMzQzYy0xLjU3Mi4wMDUtMi43MDMuNDgtMy41NjEgMS4xOTNjLS44ODcuNzQtMS40OCAxLjc0NS0xLjg2NSAyLjc4MWMtLjQ2NCAxLjIyNC0uNjI1IDIuNDExLS42ODggMy4yMTlsLjAyMS0uMDExYTYuOCA2LjggMCAwIDEgMS43NzEtLjY4N2MuNjY3LS4xNTcgMS4zOTEtLjIwNCAyLjA0MS4wNTJjLjY1Ny4yNDkgMS4xOTMuODQ4IDEuMzkxIDEuNzQ5Yy45MzkgNC4zNDQtLjI5MSA1Ljk1OS0uNzQ0IDcuMTc3Yy0uMTcyLjQ0My0uMzIzLjg5MS0uNDQzIDEuMzQ5Yy4wNTctLjAxMS4xMTUtLjAyNy4xNzItLjAzMmMuMzIzLS4wMjUuNTcyLjA3OS43MTkuMTQxYy40NTkuMTkyLjc3MS41ODguOTQzIDEuMDQxYTIgMiAwIDAgMSAuMDkzLjM4YS42LjYgMCAwIDEgLjAyNy4xNjdhNzIgNzIgMCAwIDAgLjAxNSA0Ljk4NGMuMDMyLjcxOS4wNzkgMS4zNDkuMTM2IDEuODQ5Yy4wNTcuNDk1LjEzNS44NzUuMTg4IDEuMDA1Yy4xNzEuNDI3LjQyMS45ODQuODc1IDEuMzY0Yy40NDguMzgxIDEuMDkzLjYzMSAyLjI3Ni4zODFjMS4wMjUtLjIyNCAxLjY1Ni0uNTI3IDIuMDc3LS45NjRjLjQyMy0uNDQzLjY3Mi0xLjA1Mi44MzMtMS45ODRjLjI0NS0xLjQwMS43MjktNS40NjQuNzg3LTYuMjI0Yy0uMDI1LS41NzkuMDU3LTEuMDIxLjI0NS0xLjM2Yy4xODctLjM0NC40NzktLjU1Ny43MzUtLjY3MmMuMTI0LS4wNTcuMjQ0LS4wOTMuMzQzLS4xMjVhMTQgMTQgMCAwIDAtLjMyMy0uNDMyYTYgNiAwIDAgMS0uODkxLTEuNDYzYTcgNyAwIDAgMC0uMzQ0LS42NDdjLS4xNzYtLjMxNy0uNC0uNzE5LS42MzUtMS4xNzJjLS40NjktLjg5Ni0uOTc5LTEuOTg5LTEuMjQ1LTMuMDUyYy0uMjY1LTEuMDYzLS4zMDEtMi4xNjEuMzc2LTIuOTMyYy41OTktLjY4OCAxLjY1Ni0uOTczIDMuMjMzLS44MTJjLS4wNDctLjE0MS0uMDcyLS4yNjEtLjE1MS0uNDQzYTEwLjUgMTAuNSAwIDAgMC0xLjM5MS0yLjM1NWMtMS4zMzktMS43MTMtMy41MTEtMy40MTItNi44NTktMy40Njl6bS04Ljg1My4wNjhhOCA4IDAgMCAwLS41MDUuMDE2Yy0xLjM0OS4wNzktMi42Mi40NjgtMy41MzIgMS40MzJjLS45MTEuOTY5LTEuNTA5IDIuNTQ3LTEuMzggNS4xNjdjLjAyNy41LjI0IDEuODg1LjYwOSAzLjUzNmMuMzcxIDEuNjUyLjg5NiAzLjU5NSAxLjUyNyA1LjMxM2MuNjI5IDEuNzEzIDEuMzkxIDMuMjA4IDIuMTIgMy45MTZjLjM2NC4zNDkuNjgxLjQ5NS45NjguNDg1Yy4yODctLjAxNi42MzYtLjE4MyAxLjA2My0uNjkzYTU3IDU3IDAgMCAxIDIuNDEyLTIuNzI5YTQuNjcgNC42NyAwIDAgMS0xLjU1Mi00LjIwM2MuMTM1LS45ODQuMTU2LTEuOTA3LjEzNS0yLjYzNmMtLjAxNS0uNzA4LS4wNjMtMS4xNzYtLjA2My0xLjQ3M3YtLjAzMmwtLjAwNS0uMDA5YzAtMS41MzcuMjcyLTMuMDU3Ljc5Mi00LjVjLjM3NS0uOTk2LjkyOC0yIDEuNzYtMi44MTljLS44MTctLjI3MS0yLjI3MS0uNjc2LTMuODQzLS43NTVhOCA4IDAgMCAwLS41MDUtLjAxNnptMTYuNTMgNy4wNDFjLS45MDUuMDE2LTEuNDExLjI1MS0xLjY4MS41NTJjLS4zNzYuNDMzLS40MTIgMS4xOTMtLjE3NyAyLjEzMWMuMjMzLjkzNy43MTkgMS45ODQgMS4xNzIgMi44NTVjLjIyNC40MzcuNDQzLjgyOC42MTkgMS4xNDVjLjE4My4zMjMuMzEzLjU0Ny4zOTEuNzQ1Yy4wNzMuMTc3LjE1Ny4zMzMuMjQuNDc5Yy4zNDktLjc0LjQxMi0xLjQ2NC4zNzUtMi4yMjRjLS4wNDctLjkzNy0uMjY1LTEuODk2LS4yMjktMi44NjRjLjAzNy0xLjEzNi4yNjEtMS44NzYuMjc3LTIuNzUxYTggOCAwIDAgMC0uOTg1LS4wNjh6bS0xMC45NzguMTU4Yy0uMjc2IDAtLjU1Mi4wMzYtLjgyMy4wOTlhNiA2IDAgMCAwLTEuNTM3LjU5OWEzLjMgMy4zIDAgMCAwLS40NjMuMzAzbC0uMDMyLjAyNWMuMDExLjE5OS4wNDcuNjY3LjA2MyAxLjM2NWMuMDE2Ljc2IDAgMS43MjgtLjE0NSAyLjc3NmMtLjMyMyAyLjI4MSAxLjMzMyA0LjE2NyAzLjI3NiA0LjE3MmMuMTE1LS40NjkuMzAxLS45NDQuNDg5LTEuNDQzYy41NDEtMS40NTkgMS42MDQtMi41MjEuNzA4LTYuNjc3Yy0uMTQ1LS42NzctLjQzNy0uOTUzLS44MzktMS4xMDlhMS45IDEuOSAwIDAgMC0uNjk3LS4xMDl6bTEwLjU1Ny4yN2guMDY4Yy4wODMuMDA1LjE2Ny4wMTEuMjM5LjAzMWEuNS41IDAgMCAxIC4xODMuMDczYS4yMS4yMSAwIDAgMSAuMDk5LjE0NXYuMDExYS40LjQgMCAwIDEtLjA0Ny4xODNhMSAxIDAgMCAxLS4xNDUuMTk3YS44OC44OCAwIDAgMS0uNTE2LjI4MWEuNzguNzggMCAwIDEtLjU0Ny0uMTM1YTEgMSAwIDAgMS0uMTcyLS4xNTdhLjMuMyAwIDAgMS0uMDg0LS4xNzJhLjI0LjI0IDAgMCAxIC4wNTItLjE3MWEuNy43IDAgMCAxIC4xNTctLjEyYy4xMjktLjA3My4zMDEtLjEyNS41LS4xNTJxLjExLS4wMTMuMjEzLS4wMnptLTEwLjQyOC4yMjRjLjA2OCAwIC4xNDcuMDA1LjIyLjAxNWMuMjA4LjAzMi4zODUuMDg0LjUyNS4xNjdhLjUuNSAwIDAgMSAuMTc3LjE0MWEuMzIuMzIgMCAwIDEgLjA3My4yMjRhLjQ0LjQ0IDAgMCAxLS4xLjIwOGExIDEgMCAwIDEtLjE5Mi4xNzJhLjg0Ljg0IDAgMCAxLS41OTkuMTUxYS45Ni45NiAwIDAgMS0uNTU3LS4zMDFhMSAxIDAgMCAxLS4xNTctLjIxOWEuMzYuMzYgMCAwIDEtLjA1Ny0uMjRjLjAyMS0uMTQuMTQxLS4yMTkuMjU2LS4yNmMuMTMxLS4wNDMuMjcxLS4wNTcuNDExLS4wNTJ6bTEyLjA3OSA5Ljc5MWgtLjAwNWMtLjE5Mi4wNzMtLjM1My4xLS40ODkuMTYzYS42LjYgMCAwIDAtLjMxNy4yODVjLS4wODkuMTUyLS4xNTYuNDIzLS4xMzYuODg1YS42LjYgMCAwIDAgLjE5OS4wOTVjLjIyNC4wNjguNjA5LjExNSAxLjAzNi4xMDljLjg0OS0uMDExIDEuODk2LS4yMDggMi40NTMtLjQ2OWE1LjMgNS4zIDAgMCAwIDEuMjU1LS44MTdjLTEuODU5LjM4LTIuOTA1LjI4MS0zLjU1Mi4wMTZhMiAyIDAgMCAxLS40NDMtLjI2N3ptLTEwLjcwOC4xMjVoLS4wMjdjLS4wNzIuMDA1LS4xNzIuMDMyLS4zNzUuMjUxYy0uNDY0LjUyLS42MjUuODQ4LTEuMDA1IDEuMTUxYy0uMzg1LjMwNy0uODguNDY5LTEuODc1LjY3MmEyLjYgMi42IDAgMCAwLS42MTUuMTkyYy4wMzYuMDMyLjAzNi4wNDMuMDkzLjA2OGMuMTQ3LjA4NC4zMzMuMTUyLjQ4NS4xOTNjLjQyNy4xMDQgMS4xMjQuMjI5IDEuODU5LjEwNGMuNzI5LS4xMjUgMS40ODktLjQ3NSAyLjE0MS0xLjM4NWMuMTE1LS4xNTYuMTI0LS4zOTEuMDMxLS42NDFjLS4wOTMtLjI0NC0uMjk3LS40NjMtLjQzNy0uNTJhMSAxIDAgMCAwLS4yNzYtLjA4NHoiIGZpbGw9IiNCQzc4RDEiLz4mI3hhOzwvc3ZnPg==;" vertex="1" parent="1">
          <mxGeometry x="1023.0000061035157" y="30.499975585937506" width="31" height="32" as="geometry" />
        </mxCell>
        <mxCell id="rvtcHREpMxHjGHmo84dP-42" value="" style="shape=image;verticalLabelPosition=bottom;labelBackgroundColor=default;verticalAlign=top;aspect=fixed;imageAspect=0;editableCssRules=.*;image=data:image/svg+xml,PHN2ZyB4bWxucz0iaHR0cDovL3d3dy53My5vcmcvMjAwMC9zdmciIHZpZXdCb3g9IjkuMzc0NzQ4MjI5OTgwNDY5IDMuMTI1IDgxLjI1MDUwMzU0MDAzOTA2IDkyLjE4Njk5NjQ1OTk2MDk0IiB2ZXJzaW9uPSIxLjEiIHdpZHRoPSI4MS4yNTA1MDM1NDAwMzkwNiIgaGVpZ2h0PSI5Mi4xODY5OTY0NTk5NjA5NCI+JiN4YTsgPHBhdGggZD0ibTkwLjU5NCAxNi44NzVjLTAuNDUzMTItOC45Mzc1LTIxLjE0MS0xMy43NS00MC41OTQtMTMuNzVzLTQwLjE0MSA0LjgxMjUtNDAuNTk0IDEzLjc1Yy0wLjAxNTYyNSAwLjA5Mzc1LTAuMDMxMjUgMC4yMDMxMi0wLjAzMTI1IDAuMzEyNXY2NC4wNjJjMCAwLjEwOTM4IDAuMDE1NjI1IDAuMjE4NzUgMC4wMzEyNSAwLjMxMjUgMC40NTMxMiA4LjkzNzUgMjEuMTQxIDEzLjc1IDQwLjU5NCAxMy43NXM0MC4xNDEtNC44MTI1IDQwLjU5NC0xMy43NWMwLjAxNTYyNS0wLjA5Mzc1IDAuMDMxMjUtMC4yMDMxMiAwLjAzMTI1LTAuMzEyNXYtNjQuMDYyYzAtMC4xMDkzOC0wLjAxNTYyNS0wLjIxODc1LTAuMDMxMjUtMC4zMTI1em0tOC44NTk0IDY0Ljc1Yy0zLjc2NTYgMS4yNS04LjA2MjUgMi4yMzQ0LTEyLjc1IDIuOTUzMS0wLjA3ODEyNSAwLjAxNTYyNS0wLjE1NjI1IDAuMDE1NjI1LTAuMjM0MzggMC4wMTU2MjUtMC43NjU2MiAwLTEuNDIxOS0wLjU0Njg4LTEuNTQ2OS0xLjMyODEtMC4xMjUtMC44NTkzOCAwLjQ1MzEyLTEuNjU2MiAxLjMxMjUtMS43ODEyIDQuNTE1Ni0wLjY4NzUgOC42NDA2LTEuNjQwNiAxMi4yNS0yLjgyODEgMC44MTI1LTAuMjgxMjUgMS43MDMxIDAuMTcxODggMS45Njg4IDEgMC4yNjU2MiAwLjgxMjUtMC4xNzE4OCAxLjcwMzEtMSAxLjk2ODh6bS0xMi41NzgtOC4yMTg4Yy01Ljc5NjkgMS4wNDY5LTEyLjQyMiAxLjU5MzgtMTkuMTU2IDEuNTkzOHMtMTMuMzU5LTAuNTQ2ODgtMTkuMTcyLTEuNTkzOGMtOC41NzgxLTEuNTE1Ni0xNC44NTktMy44NzUtMTguMzI4LTYuNzk2OXYtNS42NzE5YzAgMy4wMTU2IDUuODQzOCA3LjA5MzggMTguODc1IDkuNDA2MiAxMS4yNjYgMiAyNS45ODQgMiAzNy4yMzQgMCAxMy4wNDctMi4zMTI1IDE4Ljg5MS02LjM5MDYgMTguODkxLTkuNDA2MnY1LjY3MTljLTMuNDY4OCAyLjkyMTktOS43NSA1LjI4MTItMTguMzQ0IDYuNzk2OXptLTEuOTUzMS0xMi4wMTZjLTAuMTI1LTAuODU5MzggMC40NTMxMi0xLjY1NjIgMS4zMTI1LTEuNzgxMiA0LjUxNTYtMC42ODc1IDguNjQwNi0xLjY0MDYgMTIuMjUtMi44MjgxIDAuODEyNS0wLjI2NTYyIDEuNzAzMSAwLjE3MTg4IDEuOTY4OCAxIDAuMjY1NjIgMC44MTI1LTAuMTcxODggMS43MDMxLTEgMS45Njg4LTMuNzY1NiAxLjI1LTguMDYyNSAyLjIzNDQtMTIuNzUgMi45NTMxLTAuMDc4MTI1IDAuMDE1NjI1LTAuMTU2MjUgMC4wMTU2MjUtMC4yMzQzOCAwLjAxNTYyNS0wLjc2NTYyIDAtMS40MjE5LTAuNTQ2ODgtMS41NDY5LTEuMzI4MXptMS45NTMxLTkuODU5NGMtNS43OTY5IDEuMDQ2OS0xMi40MjIgMS41OTM4LTE5LjE1NiAxLjU5MzhzLTEzLjM1OS0wLjU0Njg4LTE5LjE3Mi0xLjU5MzhjLTguNTc4MS0xLjUxNTYtMTQuODU5LTMuODc1LTE4LjMyOC02Ljc5Njl2LTUuNjcxOWMwIDMuMDE1NiA1Ljg0MzggNy4wOTM4IDE4Ljg3NSA5LjQwNjIgMTEuMjY2IDIgMjUuOTg0IDIgMzcuMjM0IDAgMTMuMDQ3LTIuMzEyNSAxOC44OTEtNi4zOTA2IDE4Ljg5MS05LjQwNjJ2NS42NzE5Yy0zLjQ2ODggMi45MjE5LTkuNzUgNS4yODEyLTE4LjM0NCA2Ljc5Njl6bS0xLjk1MzEtMTIuMDE2Yy0wLjEyNS0wLjg1OTM4IDAuNDUzMTItMS42NTYyIDEuMzEyNS0xLjc4MTIgNC41MTU2LTAuNjg3NSA4LjY0MDYtMS42NDA2IDEyLjI1LTIuODI4MSAwLjgxMjUtMC4yNjU2MiAxLjcwMzEgMC4xNzE4OCAxLjk2ODggMSAwLjI2NTYyIDAuODEyNS0wLjE3MTg4IDEuNzAzMS0xIDEuOTY4OC0zLjc2NTYgMS4yNS04LjA2MjUgMi4yMzQ0LTEyLjc1IDIuOTUzMS0wLjA3ODEyNSAwLjAxNTYyNS0wLjE1NjI1IDAuMDE1NjI1LTAuMjM0MzggMC4wMTU2MjUtMC43NjU2MiAwLTEuNDIxOS0wLjU0Njg4LTEuNTQ2OS0xLjMyODF6bS0xNy4yMDMtMTEuMzkxYzIyLjA5NCAwIDM3LjUtNS43NjU2IDM3LjUtMTAuOTM4djUuNjcxOWMtNi41NjI1IDUuNS0yMi4zOTEgOC4zOTA2LTM3LjUgOC4zOTA2cy0zMC45MzgtMi44OTA2LTM3LjUtOC4zOTA2di01LjY3MTljMCA1LjE3MTkgMTUuNDA2IDEwLjkzOCAzNy41IDEwLjkzOHoiIGZpbGw9IiNEQUI0MjAiLz4mI3hhOzwvc3ZnPg==;" vertex="1" parent="1">
          <mxGeometry x="274" y="32.75" width="24.21" height="27.5" as="geometry" />
        </mxCell>
      </root>
    </mxGraphModel>
  </diagram>
</mxfile>
